<svg width="294" height="437" viewBox="0 0 294 437" fill="none" xmlns="http://www.w3.org/2000/svg">
<g opacity="0.12" filter="url(#filter0_d_5275_20880)">
<path fill-rule="evenodd" clip-rule="evenodd" d="M213.771 190.455C206.605 219.122 204.297 294.432 166.156 278.641C130.201 263.822 59.3852 252.768 4.11719 259.085C4.11719 226.531 5.57481 172.478 43.4729 166.647C91.8173 159.238 163.241 167.255 213.771 190.455Z" fill="#116A8C"/>
<path fill-rule="evenodd" clip-rule="evenodd" d="M289.572 0C289.572 75.3104 292.123 98.3894 209.646 114.18C99.3527 135.316 27.4435 181.474 4 259.092C4 64.0139 94.1295 20.2852 289.572 0Z" fill="#00ADEE"/>
<path fill-rule="evenodd" clip-rule="evenodd" d="M213.776 190.484C213.776 263.487 217.906 281.221 141.259 303.571C77.0024 322.278 26.8361 365.52 4 435C4 274.176 46.6353 224.131 213.776 190.484Z" fill="#00ADEE"/>
</g>
<defs>
<filter id="filter0_d_5275_20880" x="0" y="0" width="293.582" height="443" filterUnits="userSpaceOnUse" color-interpolation-filters="sRGB">
<feFlood flood-opacity="0" result="BackgroundImageFix"/>
<feColorMatrix in="SourceAlpha" type="matrix" values="0 0 0 0 0 0 0 0 0 0 0 0 0 0 0 0 0 0 127 0" result="hardAlpha"/>
<feOffset dy="4"/>
<feGaussianBlur stdDeviation="2"/>
<feComposite in2="hardAlpha" operator="out"/>
<feColorMatrix type="matrix" values="0 0 0 0 0 0 0 0 0 0 0 0 0 0 0 0 0 0 0.25 0"/>
<feBlend mode="normal" in2="BackgroundImageFix" result="effect1_dropShadow_5275_20880"/>
<feBlend mode="normal" in="SourceGraphic" in2="effect1_dropShadow_5275_20880" result="shape"/>
</filter>
</defs>
</svg>
