<svg width="447" height="126" viewBox="0 0 447 126" fill="none" xmlns="http://www.w3.org/2000/svg">
<g filter="url(#filter0_d_5322_48034)">
<path fill-rule="evenodd" clip-rule="evenodd" d="M421.756 51.2521C419.796 58.9654 419.165 79.2292 408.738 74.9803C398.908 70.9929 379.547 68.0187 364.438 69.7183C364.438 60.9591 364.836 46.4149 375.197 44.8461C388.414 42.8524 407.941 45.0095 421.756 51.2521Z" fill="#D4D4D4"/>
<path fill-rule="evenodd" clip-rule="evenodd" d="M442.488 0C442.488 20.2638 443.185 26.4737 420.636 30.7226C390.483 36.4095 370.823 48.8293 364.414 69.7141C364.414 17.2243 389.055 5.45817 442.488 0Z" fill="white"/>
<path fill-rule="evenodd" clip-rule="evenodd" d="M421.074 52.207C421.074 71.8499 422.203 76.6217 401.248 82.6355C383.681 87.6687 369.966 99.3041 363.723 117.999C363.723 74.726 375.379 61.2604 421.074 52.207Z" fill="white"/>
<path d="M187.302 98.4399C186.794 98.4732 186.151 98.5065 185.338 98.5065C184.594 98.5065 183.849 98.4732 183.138 98.4066C182.427 98.3733 181.818 98.2733 181.378 98.1734L181.276 88.0786H176.131V98.1734C174.946 98.4066 173.558 98.5065 171.899 98.5065C169.97 98.5065 168.413 98.3733 167.228 98.0734L167.126 88.0786H161.981V98.2067L154.33 98.24C152.604 98.24 151.385 98.1734 150.674 98.0401C149.963 97.9068 149.253 97.5737 148.474 97.0073C147.695 96.4409 146.341 95.2749 144.412 93.5091L138.928 88.5783C135.78 92.1431 133.647 94.5086 132.53 95.6413C131.413 96.7741 130.431 97.5071 129.686 97.7736C128.942 98.0734 127.723 98.2067 126.132 98.2067H124.541C122.882 98.2067 121.427 97.9735 120.208 97.5404V87.5122H115.096L115.063 97.607C114.352 97.8069 113.607 97.9735 112.761 98.0401C111.914 98.1401 110.865 98.1734 109.545 98.1734H109.511H107.751C106.464 98.1734 105.483 98.0068 104.873 97.707C104.264 97.4071 103.858 96.9407 103.655 96.3743C103.452 95.7746 103.282 94.8751 103.181 93.6091L102.199 83.3477L96.6474 84.7803L99.1863 98.0068C98.4077 98.2067 97.3921 98.3733 96.0719 98.5399C94.7517 98.6731 93.4992 98.7398 92.3144 98.7398C90.825 98.7398 89.674 98.6398 88.8616 98.4399V93.5091H83.8854L83.8516 97.7403C83.8516 99.4727 84.1224 100.805 84.6301 101.805C85.1718 102.804 86.0181 103.537 87.2029 103.937C88.3877 104.37 89.9787 104.603 92.0436 104.603C93.9054 104.603 95.6319 104.337 97.2567 103.837C98.8478 103.304 100.236 102.604 101.387 101.705C103.282 103.204 105.381 103.97 107.683 103.97H108.969H109.477C110.865 103.937 112.253 103.737 113.573 103.404C115.063 103.004 116.451 102.438 117.669 101.738C118.922 102.471 120.039 103.038 121.02 103.404C122.002 103.804 122.984 104.004 123.999 104.004H124.507H126.301C127.215 104.004 128.062 103.837 128.874 103.504C129.686 103.171 130.465 102.671 131.244 102.038C131.718 103.504 132.361 104.803 133.207 105.969C134.053 107.135 135.001 108.035 136.118 108.701C137.235 109.368 138.386 109.701 139.571 109.701C140.824 109.701 142.008 109.368 143.125 108.735C144.209 108.102 145.157 107.202 145.935 106.036C146.714 104.903 147.255 103.571 147.56 102.038C148.779 102.704 149.896 103.204 150.945 103.504C151.995 103.804 153.112 103.97 154.296 103.97H154.364H156.091H156.192C157.919 103.97 159.543 103.837 160.965 103.537C162.421 103.271 163.606 102.871 164.52 102.338C165.501 102.904 166.585 103.337 167.803 103.637C169.022 103.937 170.308 104.07 171.662 104.07C172.982 104.07 174.269 103.904 175.487 103.571C176.74 103.237 177.789 102.771 178.67 102.171C180.802 103.471 182.766 104.104 184.627 104.104C186.083 104.104 187.369 103.804 188.52 103.237C189.637 102.638 190.518 101.838 191.161 100.772C191.77 99.7059 192.109 98.5065 192.109 97.1739V84.8469L186.354 85.6798L187.302 98.4399ZM143.159 101.705C142.787 102.271 142.313 102.704 141.771 103.004C141.23 103.304 140.722 103.437 140.18 103.437C139.266 103.437 138.352 103.071 137.472 102.338C136.592 101.605 135.881 100.639 135.34 99.3728L139.165 95.5747L144.039 99.7059C143.87 100.472 143.566 101.139 143.159 101.705Z" fill="white"/>
<path d="M320.18 108.789L316.456 105.424L313.173 108.422L309.821 105.391L306.098 108.789L309.821 112.12L313.139 109.155L316.456 112.154L320.18 108.789Z" fill="white"/>
<path d="M70.3408 99.2784C71.0855 97.6459 71.4579 95.2472 71.4579 92.0488C71.4579 89.1836 71.0517 86.7515 70.2393 84.7859C69.4268 82.7869 68.2759 81.321 66.7864 80.3215C65.2969 79.322 63.5367 78.8223 61.4717 78.8223C59.2037 78.8223 57.4773 79.7218 56.394 81.5209C55.2769 83.32 54.7353 86.0852 54.7353 89.8499C54.7353 92.2154 55.3446 93.9478 56.5294 95.014C57.7142 96.1134 59.4745 96.6464 61.7764 96.6464C62.7919 96.6464 64.146 96.5465 65.8724 96.3133C66.0755 96.28 66.414 96.2467 66.888 96.18L66.6849 98.2456H57.3757H49.1836H48.879L48.1004 87.0847L42.4133 88.4507L44.5798 100.811C43.6997 102.743 42.5488 104.209 41.1608 105.142C39.7729 106.042 38.0804 106.541 36.0154 106.541H33.4766V112.005C34.6952 112.305 35.8462 112.472 36.9633 112.472C38.6897 112.472 40.2807 112.072 41.804 111.306C43.2935 110.539 44.6137 109.44 45.6969 108.007C46.814 106.575 47.6603 104.909 48.2358 103.01C49.0482 103.343 49.8607 103.576 50.5716 103.776C51.3163 103.943 54.5322 104.043 55.3446 104.043H57.3418V104.009C61.0655 103.909 63.8752 103.543 65.8047 102.91C68.1066 102.11 69.5961 100.911 70.3408 99.2784ZM62.4196 91.1493C61.5394 91.1493 60.8624 91.0826 60.3546 90.9494C59.8469 90.8161 59.5083 90.5829 59.2714 90.2497C59.0683 89.9499 58.9329 89.5168 58.9329 88.9837C58.9329 87.8176 59.0344 86.2851 59.2714 84.3194H60.1854C61.7087 84.3194 62.995 84.5527 63.9429 85.0524C64.8907 85.5521 65.6355 86.2851 66.1094 87.2846C66.5833 88.2841 66.888 89.5501 67.0234 91.1493H62.4196Z" fill="white"/>
<path d="M32.6431 89.4635C31.526 86.7982 30.0027 84.4328 28.0732 82.3672L24.248 87.0648C25.8728 88.8639 27.193 90.7296 28.1747 92.6619C29.1903 94.5942 29.7319 96.4933 29.8335 98.2923C29.2918 98.4589 28.4455 98.6255 27.3284 98.7255C26.2113 98.8254 25.0604 98.892 23.8417 98.892C22.0476 98.892 20.7613 98.7588 19.9827 98.5256V93.6281H15.0065L14.9727 97.7926C14.9727 99.525 15.2435 100.858 15.7512 101.857C16.2929 102.857 17.1392 103.59 18.324 104.023C19.5088 104.456 21.1336 104.689 23.1647 104.689C25.5343 104.689 27.5654 104.423 29.2241 103.856C30.8828 103.29 32.1354 102.457 33.0155 101.391C33.8956 100.291 34.3357 98.992 34.3357 97.4594C34.3357 94.8275 33.7602 92.1288 32.6431 89.4635Z" fill="white"/>
<path d="M331.652 105.531L327.59 109.596L331.652 113.627L335.748 109.596L331.652 105.531Z" fill="white"/>
<path d="M337.91 100.267C338.96 99.0674 339.501 97.7014 339.501 96.1688C339.501 94.8362 339.467 93.0371 339.366 90.705C339.264 88.3728 339.163 86.3739 339.061 84.6747L333.34 85.8741L334.66 97.0351C333.848 97.4349 332.731 97.7347 331.377 97.9346C330.023 98.1345 328.499 98.2678 326.841 98.2678H325.081C323.422 98.2678 321.966 98.0345 320.748 97.6014V87.5733H315.67L315.636 97.6681C314.925 97.868 314.146 98.0345 313.334 98.1012C312.488 98.2011 311.438 98.2344 310.118 98.2344H308.358C306.598 98.2344 305.379 98.1678 304.702 98.0345C303.991 97.9013 303.246 97.5681 302.468 97.0017C301.689 96.4354 300.335 95.2693 298.406 93.5035L292.922 88.5727C289.807 92.1376 287.641 94.503 286.524 95.6358C285.407 96.7685 284.425 97.5015 283.68 97.768C282.902 98.0679 281.717 98.2011 280.126 98.2011H278.535C277.011 98.2011 275.894 97.9346 275.183 97.4349C274.473 96.9351 274.1 96.1355 274.1 95.0361L274.066 80.377L268.041 81.1099L268.345 83.8085C265.231 84.5415 262.895 85.3078 261.372 86.174C259.815 87.0069 258.732 88.1063 258.088 89.5056C257.445 90.9049 257.141 92.8372 257.141 95.3359C257.141 96.3354 257.174 97.4015 257.276 98.6009L257.479 102.032L270.241 102.066L271.02 99.9669C271.764 101.366 272.746 102.399 273.999 103.032C275.251 103.665 276.741 103.965 278.467 103.965H278.501H280.295C281.209 103.965 282.055 103.798 282.868 103.465C283.68 103.132 284.459 102.632 285.237 101.999C285.711 103.465 286.354 104.764 287.201 105.93C288.047 107.097 288.995 107.996 290.112 108.662C291.229 109.329 292.38 109.662 293.565 109.662C294.817 109.662 296.002 109.329 297.119 108.696C298.202 108.063 299.15 107.163 299.929 105.997C300.707 104.864 301.249 103.532 301.554 101.999C302.772 102.666 303.889 103.165 304.939 103.465C305.988 103.765 307.105 103.932 308.29 103.932H308.358H309.577H310.186V103.898C311.54 103.865 312.86 103.665 314.18 103.332C315.67 102.932 317.058 102.366 318.31 101.666C319.563 102.399 320.68 102.965 321.662 103.332C322.643 103.732 323.625 103.932 324.64 103.932H325.148H326.942C329.447 103.932 331.682 103.598 333.611 102.932C335.371 102.366 336.861 101.433 337.91 100.267ZM261.372 96.3021C261.338 96.0023 261.338 95.6025 261.338 95.1027C261.338 93.9033 261.541 93.0038 261.981 92.3708C262.421 91.7711 263.098 91.2714 264.046 90.9382C264.994 90.5717 266.653 90.1053 269.022 89.5056L269.429 96.3021H261.372ZM297.051 101.699C296.645 102.266 296.171 102.699 295.664 102.999C295.122 103.299 294.614 103.432 294.073 103.432C293.159 103.432 292.245 103.065 291.364 102.332C290.484 101.599 289.773 100.633 289.232 99.3672L293.057 95.5692L297.898 99.667C297.729 100.467 297.458 101.133 297.051 101.699Z" fill="white"/>
<path d="M178.818 80.6468L182.204 84.0118L185.995 80.2804L182.204 76.5156L178.785 79.8806L175.366 76.5156L171.574 80.2804L175.366 84.0118L178.818 80.6468Z" fill="white"/>
<path d="M182.58 74.5421L178.789 70.7773L175.031 74.5421L178.789 78.2735L182.58 74.5421Z" fill="white"/>
<path d="M65.7559 73.1407L61.6937 69.0762L57.5977 73.1407L61.6937 77.172L65.7559 73.1407Z" fill="white"/>
<path d="M121.721 78.5216L117.659 74.457L113.562 78.5216L117.659 82.5529L121.721 78.5216Z" fill="white"/>
<path d="M237.446 82.8156C235.313 81.9161 231.996 80.75 227.527 79.2841L226.715 79.0176L226.038 82.0494C224.515 82.5158 223.194 83.2154 222.111 84.1483C220.994 85.0811 220.148 86.2139 219.538 87.5132C218.929 88.8125 218.658 90.2451 218.658 91.811C218.658 93.1103 218.963 94.3097 219.572 95.4092C220.182 96.5086 221.028 97.4415 222.179 98.2077H217.846L212.734 98.1744C212.599 93.5434 211.753 90.0786 210.162 87.7797C208.571 85.4809 206.201 84.3149 203.087 84.3149C200.92 84.3149 199.261 84.7813 198.144 85.7808C197.027 86.7469 196.282 88.0796 195.944 89.7787C195.572 91.4778 195.402 93.6434 195.402 96.3087C195.402 98.1078 195.673 99.5404 196.215 100.673C196.756 101.806 197.603 102.639 198.72 103.172C199.871 103.705 201.326 103.971 203.12 103.971C204.881 103.971 206.506 103.905 207.961 103.738C207.724 104.571 207.25 105.204 206.506 105.604C205.795 106.004 204.982 106.27 204.102 106.37C203.222 106.47 202.207 106.503 201.022 106.503H195.572V111.734C197.772 112.067 199.701 112.234 201.394 112.234C204.644 112.234 207.115 111.568 208.875 110.235C210.635 108.902 211.786 106.803 212.328 103.938H216.086H217.846C219.538 103.938 220.994 103.838 222.247 103.638C223.465 103.438 224.616 103.072 225.699 102.572C226.783 102.039 227.832 101.339 228.881 100.407H243.81L244.284 92.3441C244.284 92.1775 244.318 91.911 244.318 91.5778C244.318 89.3456 243.708 87.5465 242.456 86.1806C241.271 84.8812 239.612 83.7485 237.446 82.8156ZM203.73 98.2744C202.68 98.2744 201.868 98.2077 201.36 98.0411C200.852 97.8746 200.48 97.5747 200.277 97.1749C200.074 96.7418 199.972 96.1421 199.972 95.3092C199.972 93.6767 200.04 92.0109 200.209 90.3118C200.92 90.1785 201.665 90.1452 202.41 90.1452C203.696 90.1452 204.712 90.3784 205.456 90.8782C206.201 91.3779 206.709 92.2108 207.081 93.3436C207.42 94.5096 207.623 96.1421 207.657 98.2744H203.73ZM229.322 94.8761L227.697 94.9427C226.681 94.976 225.835 94.8761 225.158 94.5429C224.447 94.2098 223.939 93.7767 223.601 93.177C223.262 92.5773 223.059 91.911 223.059 91.1114C223.059 90.3118 223.296 89.5788 223.702 88.9458C224.142 88.3128 224.718 87.7797 225.496 87.4133C226.275 87.0468 227.155 86.8469 228.103 86.8469C228.678 86.8469 229.051 86.8802 229.288 86.9135V94.8761H229.322ZM240.019 93.0437L239.883 95.3425L233.655 95.3092L233.79 87.0468C235.482 87.6465 236.803 88.2129 237.683 88.7792C238.563 89.3456 239.206 89.9453 239.545 90.6116C239.917 91.2446 240.052 92.0775 240.019 93.0437Z" fill="white"/>
<path d="M9.8563 102.842L9.82246 76.4219L4 77.1215L4.94784 102.842H9.8563Z" fill="white"/>
</g>
<defs>
<filter id="filter0_d_5322_48034" x="0" y="0" width="446.488" height="126" filterUnits="userSpaceOnUse" color-interpolation-filters="sRGB">
<feFlood flood-opacity="0" result="BackgroundImageFix"/>
<feColorMatrix in="SourceAlpha" type="matrix" values="0 0 0 0 0 0 0 0 0 0 0 0 0 0 0 0 0 0 127 0" result="hardAlpha"/>
<feOffset dy="4"/>
<feGaussianBlur stdDeviation="2"/>
<feComposite in2="hardAlpha" operator="out"/>
<feColorMatrix type="matrix" values="0 0 0 0 0 0 0 0 0 0 0 0 0 0 0 0 0 0 0.25 0"/>
<feBlend mode="normal" in2="BackgroundImageFix" result="effect1_dropShadow_5322_48034"/>
<feBlend mode="normal" in="SourceGraphic" in2="effect1_dropShadow_5322_48034" result="shape"/>
</filter>
</defs>
</svg>
